<?xml version="1.0" encoding="utf-8"?>
<svg width="100" height="100" viewBox="0 0 100 100" 
    xmlns="http://www.w3.org/2000/svg">
    <defs>
        <radialGradient id="bubbleGradient">
            <stop stop-color="#CCC" offset="57%"></stop>
            <stop stop-color="white" offset="61%"></stop>
            <stop offset="90%" stop-color="white"></stop>
            <stop offset="95%" stop-color="white"></stop>
            <stop offset="100%" stop-color="#BBB"></stop>
        </radialGradient>
        <!-- 
        The icons bewlow are form icons8 
        https://icons8.com/icons/
        
        shared under the 
        "Attribution-NoDerivs 3.0 Unported" licence
        https://creativecommons.org/licenses/by-nd/3.0/
        
        The glyphs below are specificly form the iOS Glyph icon pack availible at
        https://icons8.com/icons/ios-glyphs
        -->
        <symbol id="fast-forward" viewBox="0 0 30 30">
            <path d="M 4 6 A 1 1 0 0 0 3 7 A 1 1 0 0 0 3 7.0039062 L 3 15 L 3 22.996094 A 1 1 0 0 0 3 23 A 1 1 0 0 0 4 24 A 1 1 0 0 0 4.5917969 23.804688 L 4.59375 23.804688 A 1 1 0 0 0 4.6210938 23.783203 L 15 16.236328 L 15 22.996094 A 1 1 0 0 0 15 23 A 1 1 0 0 0 16 24 A 1 1 0 0 0 16.591797 23.804688 L 16.59375 23.804688 A 1 1 0 0 0 16.621094 23.783203 L 27.541016 15.841797 A 1 1 0 0 0 28 15 A 1 1 0 0 0 27.556641 14.169922 L 16.59375 6.1953125 A 1 1 0 0 0 16 6 A 1 1 0 0 0 15 7 A 1 1 0 0 0 15 7.0039062 L 15 13.765625 L 4.59375 6.1953125 A 1 1 0 0 0 4 6 z"></path>
        </symbol>
        <symbol id="forward" viewBox="0 0 30 30">
            <path d="M 9.9902344 3.9902344 A 1.0001 1.0001 0 0 0 9.2929688 5.7070312 L 18.585938 15 L 9.2929688 24.292969 A 1.0001 1.0001 0 1 0 10.707031 25.707031 L 20.707031 15.707031 A 1.0001 1.0001 0 0 0 20.707031 14.292969 L 10.707031 4.2929688 A 1.0001 1.0001 0 0 0 9.9902344 3.9902344 z"></path>
        </symbol>
        <symbol id="share" viewBox="0 0 30 30">
            <path d="M3,26c-0.552,0-1-0.447-1-1C2,23.395,2.485,9.553,19,9.016V5c0-0.404,0.244-0.77,0.617-0.924 c0.374-0.156,0.804-0.069,1.09,0.217l7,7c0.391,0.391,0.391,1.023,0,1.414l-7,7c-0.286,0.286-0.716,0.372-1.09,0.217 C19.244,19.77,19,19.404,19,19v-3.986c-6.12,0.171-10.631,1.924-13.083,5.098C4.022,22.563,4,24.976,4,25C4,25.553,3.552,26,3,26z"></path>
        </symbol>
        <symbol id="edit" viewBox="0 0 30 30">
            <path d="M 22.828125 3 C 22.316375 3 21.804562 3.1954375 21.414062 3.5859375 L 19 6 L 24 11 L 26.414062 8.5859375 C 27.195062 7.8049375 27.195062 6.5388125 26.414062 5.7578125 L 24.242188 3.5859375 C 23.851688 3.1954375 23.339875 3 22.828125 3 z M 17 8 L 5.2597656 19.740234 C 5.2597656 19.740234 6.1775313 19.658 6.5195312 20 C 6.8615312 20.342 6.58 22.58 7 23 C 7.42 23.42 9.6438906 23.124359 9.9628906 23.443359 C 10.281891 23.762359 10.259766 24.740234 10.259766 24.740234 L 22 13 L 17 8 z M 4 23 L 3.0566406 25.671875 A 1 1 0 0 0 3 26 A 1 1 0 0 0 4 27 A 1 1 0 0 0 4.328125 26.943359 A 1 1 0 0 0 4.3378906 26.939453 L 4.3632812 26.931641 A 1 1 0 0 0 4.3691406 26.927734 L 7 26 L 5.5 24.5 L 4 23 z"></path>
        </symbol>
        <symbol id="delete" viewBox="0 0 30 30">
            <path d="M 13 3 A 1.0001 1.0001 0 0 0 11.986328 4 L 6 4 A 1.0001 1.0001 0 1 0 6 6 L 24 6 A 1.0001 1.0001 0 1 0 24 4 L 18.013672 4 A 1.0001 1.0001 0 0 0 17 3 L 13 3 z M 6 8 L 6 24 C 6 25.105 6.895 26 8 26 L 22 26 C 23.105 26 24 25.105 24 24 L 24 8 L 6 8 z"></path>
        </symbol>
        <symbol id="connect" viewBox="0 0 30 30">
            <path d="M 24 3 A 3 3 0 0 0 21 6 A 3 3 0 0 0 21.375 7.4472656 L 15.550781 14 L 8.8261719 14 A 3 3 0 0 0 6 12 A 3 3 0 0 0 3 15 A 3 3 0 0 0 6 18 A 3 3 0 0 0 8.8242188 16 L 15.550781 16 L 21.373047 22.550781 A 3 3 0 0 0 21 24 A 3 3 0 0 0 24 27 A 3 3 0 0 0 27 24 A 3 3 0 0 0 24 21 A 3 3 0 0 0 22.869141 21.222656 L 17.337891 15 L 22.869141 8.7773438 A 3 3 0 0 0 24 9 A 3 3 0 0 0 27 6 A 3 3 0 0 0 24 3 z"></path>
        </symbol>
        <symbol id="cogs" viewBox="0 0 30 30">
            <path d="M 19.664062 0 C 19.423063 0 19.217828 0.17120313 19.173828 0.40820312 L 18.953125 1.5839844 C 18.896125 1.8889844 18.654609 2.1166875 18.349609 2.1796875 C 18.065609 2.2386875 17.785672 2.3123906 17.513672 2.4003906 C 17.218672 2.4963906 16.897313 2.4205469 16.695312 2.1855469 L 15.919922 1.2792969 C 15.762922 1.0962969 15.498062 1.0528281 15.289062 1.1738281 L 14.710938 1.5078125 C 14.502937 1.6278125 14.408281 1.8804219 14.488281 2.1074219 L 14.884766 3.234375 C 14.987766 3.526375 14.893109 3.8437813 14.662109 4.0507812 C 14.447109 4.2437812 14.243781 4.4471094 14.050781 4.6621094 C 13.843781 4.8931094 13.526375 4.9897187 13.234375 4.8867188 L 12.105469 4.4882812 C 11.878469 4.4082812 11.627813 4.5019375 11.507812 4.7109375 L 11.171875 5.2910156 C 11.051875 5.4990156 11.097297 5.764875 11.279297 5.921875 L 11.376953 6.0058594 C 12.559953 6.0258594 13.572016 6.8720625 13.791016 8.0390625 L 13.851562 8.3574219 L 14.060547 8.1113281 C 14.519547 7.5773281 15.162172 7.2869531 15.826172 7.2519531 C 16.722172 5.8969531 18.255 5 20 5 C 22.761 5 25 7.239 25 10 C 25 11.745 24.103047 13.277875 22.748047 14.171875 C 22.713047 14.835875 22.422672 15.4795 21.888672 15.9375 L 21.642578 16.146484 L 21.960938 16.207031 C 23.127938 16.426031 23.974141 17.438094 23.994141 18.621094 L 24.078125 18.71875 C 24.235125 18.90175 24.499984 18.947172 24.708984 18.826172 L 25.289062 18.490234 C 25.497062 18.370234 25.591719 18.119578 25.511719 17.892578 L 25.113281 16.763672 C 25.010281 16.471672 25.106891 16.154266 25.337891 15.947266 C 25.552891 15.754266 25.756219 15.550938 25.949219 15.335938 C 26.156219 15.104938 26.473625 15.010281 26.765625 15.113281 L 27.892578 15.509766 C 28.119578 15.589766 28.372187 15.496109 28.492188 15.287109 L 28.826172 14.707031 C 28.946172 14.499031 28.902703 14.235125 28.720703 14.078125 L 27.814453 13.300781 C 27.579453 13.098781 27.503609 12.777422 27.599609 12.482422 C 27.687609 12.210422 27.761312 11.932438 27.820312 11.648438 C 27.883312 11.344437 28.111016 11.102922 28.416016 11.044922 L 29.591797 10.822266 C 29.828797 10.781266 30 10.576938 30 10.335938 L 30 9.6640625 C 30 9.4230625 29.828797 9.2178281 29.591797 9.1738281 L 28.416016 8.953125 C 28.111016 8.896125 27.883312 8.6546094 27.820312 8.3496094 C 27.761312 8.0656094 27.687609 7.7856719 27.599609 7.5136719 C 27.503609 7.2186719 27.579453 6.8973125 27.814453 6.6953125 L 28.720703 5.9199219 C 28.903703 5.7629219 28.947172 5.4980625 28.826172 5.2890625 L 28.492188 4.7109375 C 28.372187 4.5029375 28.119578 4.4082812 27.892578 4.4882812 L 26.765625 4.8847656 C 26.473625 4.9877656 26.156219 4.8931094 25.949219 4.6621094 C 25.756219 4.4471094 25.552891 4.2437813 25.337891 4.0507812 C 25.106891 3.8437813 25.010281 3.526375 25.113281 3.234375 L 25.511719 2.1054688 C 25.591719 1.8784687 25.498063 1.6278125 25.289062 1.5078125 L 24.708984 1.171875 C 24.500984 1.051875 24.235125 1.0972969 24.078125 1.2792969 L 23.302734 2.1855469 C 23.100734 2.4205469 22.779375 2.4963906 22.484375 2.4003906 C 22.212375 2.3123906 21.932438 2.2386875 21.648438 2.1796875 C 21.344438 2.1166875 21.102922 1.8870312 21.044922 1.5820312 L 20.824219 0.40625 C 20.782219 0.17025 20.576937 0 20.335938 0 L 19.664062 0 z M 10.664062 8 C 10.423063 8 10.217828 8.17025 10.173828 8.40625 L 9.9882812 9.3945312 C 9.9112813 9.8055313 9.5838281 10.108406 9.1738281 10.191406 C 8.8328281 10.260406 8.497875 10.348078 8.171875 10.455078 C 7.775875 10.585078 7.3413125 10.487875 7.0703125 10.171875 L 6.4199219 9.4121094 C 6.2629219 9.2301094 5.9970625 9.1866406 5.7890625 9.3066406 L 5.2109375 9.640625 C 5.0019375 9.760625 4.9082812 10.013234 4.9882812 10.240234 L 5.3242188 11.191406 C 5.4622188 11.585406 5.3305312 12.009109 5.0195312 12.287109 C 4.7625312 12.517109 4.5180625 12.760578 4.2890625 13.017578 C 4.0110625 13.328578 3.5873594 13.460266 3.1933594 13.322266 L 2.2402344 12.988281 C 2.0132344 12.908281 1.7625781 13.002937 1.6425781 13.210938 L 1.3066406 13.789062 C 1.1856406 13.998062 1.2310625 14.262922 1.4140625 14.419922 L 2.1738281 15.070312 C 2.4898281 15.341313 2.5870312 15.775875 2.4570312 16.171875 C 2.3500312 16.497875 2.2623594 16.832828 2.1933594 17.173828 C 2.1103594 17.583828 1.8074844 17.911281 1.3964844 17.988281 L 0.40820312 18.173828 C 0.17120313 18.217828 0 18.423063 0 18.664062 L 0 19.335938 C 0 19.576937 0.17025 19.782172 0.40625 19.826172 L 1.3945312 20.011719 C 1.8055312 20.088719 2.1084062 20.416172 2.1914062 20.826172 C 2.2604063 21.168172 2.3480781 21.502125 2.4550781 21.828125 C 2.5850781 22.224125 2.487875 22.658687 2.171875 22.929688 L 1.4121094 23.580078 C 1.2301094 23.737078 1.1866406 24.002938 1.3066406 24.210938 L 1.640625 24.789062 C 1.760625 24.998062 2.0132344 25.091719 2.2402344 25.011719 L 3.1914062 24.675781 C 3.5854063 24.537781 4.0091094 24.669469 4.2871094 24.980469 C 4.5171094 25.237469 4.7605781 25.481938 5.0175781 25.710938 C 5.3285781 25.988937 5.4602656 26.412641 5.3222656 26.806641 L 4.9882812 27.759766 C 4.9082812 27.986766 5.0029375 28.237422 5.2109375 28.357422 L 5.7890625 28.693359 C 5.9980625 28.814359 6.2629219 28.768937 6.4199219 28.585938 L 7.0703125 27.826172 C 7.3413125 27.510172 7.775875 27.412969 8.171875 27.542969 C 8.497875 27.649969 8.8328281 27.737641 9.1738281 27.806641 C 9.5838281 27.889641 9.9112813 28.192516 9.9882812 28.603516 L 10.173828 29.591797 C 10.217828 29.828797 10.423063 30 10.664062 30 L 11.335938 30 C 11.576938 30 11.782219 29.82875 11.824219 29.59375 L 12.009766 28.605469 C 12.086766 28.194469 12.414219 27.891594 12.824219 27.808594 C 13.166219 27.739594 13.500172 27.651922 13.826172 27.544922 C 14.222172 27.414922 14.656734 27.512125 14.927734 27.828125 L 15.578125 28.587891 C 15.735125 28.769891 15.999031 28.815313 16.207031 28.695312 L 16.787109 28.359375 C 16.996109 28.239375 17.089766 27.988719 17.009766 27.761719 L 16.675781 26.808594 C 16.537781 26.414594 16.669469 25.990891 16.980469 25.712891 C 17.237469 25.482891 17.481938 25.239422 17.710938 24.982422 C 17.988937 24.671422 18.413641 24.539734 18.806641 24.677734 L 19.759766 25.011719 C 19.986766 25.091719 20.237422 24.997062 20.357422 24.789062 L 20.693359 24.210938 C 20.814359 24.001937 20.768937 23.737078 20.585938 23.580078 L 19.826172 22.929688 C 19.510172 22.658688 19.412969 22.224125 19.542969 21.828125 C 19.649969 21.502125 19.737641 21.167172 19.806641 20.826172 C 19.889641 20.416172 20.192516 20.088719 20.603516 20.011719 L 21.591797 19.826172 C 21.828797 19.782172 22 19.576937 22 19.335938 L 22 18.664062 C 22 18.423063 21.82875 18.218781 21.59375 18.175781 L 20.605469 17.990234 C 20.194469 17.913234 19.891594 17.583828 19.808594 17.173828 C 19.739594 16.832828 19.651922 16.497875 19.544922 16.171875 C 19.414922 15.775875 19.512125 15.343266 19.828125 15.072266 L 20.587891 14.421875 C 20.769891 14.264875 20.815313 13.999016 20.695312 13.791016 L 20.359375 13.210938 C 20.239375 13.001937 19.988719 12.908281 19.761719 12.988281 L 18.808594 13.324219 C 18.414594 13.462219 17.990891 13.330531 17.712891 13.019531 C 17.482891 12.762531 17.239422 12.518062 16.982422 12.289062 C 16.671422 12.011063 16.539734 11.587359 16.677734 11.193359 L 17.011719 10.240234 C 17.091719 10.013234 16.997062 9.7625781 16.789062 9.6425781 L 16.210938 9.3066406 C 16.001938 9.1856406 15.737078 9.2310625 15.580078 9.4140625 L 14.929688 10.173828 C 14.658687 10.489828 14.224125 10.587031 13.828125 10.457031 C 13.502125 10.350031 13.167172 10.262359 12.826172 10.193359 C 12.416172 10.110359 12.088719 9.8074844 12.011719 9.3964844 L 11.826172 8.4082031 C 11.782172 8.1712031 11.576937 8 11.335938 8 L 10.664062 8 z M 20 9 A 1 1 0 0 0 19 10 A 1 1 0 0 0 20 11 A 1 1 0 0 0 21 10 A 1 1 0 0 0 20 9 z M 11 13 C 14.314 13 17 15.686 17 19 C 17 22.314 14.314 25 11 25 C 7.686 25 5 22.314 5 19 C 5 15.686 7.686 13 11 13 z M 11 17 C 9.895 17 9 17.895 9 19 C 9 20.105 9.895 21 11 21 C 12.105 21 13 20.105 13 19 C 13 17.895 12.105 17 11 17 z"></path>
        </symbol>
        <symbol id="inspect" viewBox="0 0 30 30">
            <path d="M 13 3 C 7.4889971 3 3 7.4889971 3 13 C 3 18.511003 7.4889971 23 13 23 C 15.396508 23 17.597385 22.148986 19.322266 20.736328 L 25.292969 26.707031 A 1.0001 1.0001 0 1 0 26.707031 25.292969 L 20.736328 19.322266 C 22.148986 17.597385 23 15.396508 23 13 C 23 7.4889971 18.511003 3 13 3 z M 13 5 C 17.430123 5 21 8.5698774 21 13 C 21 17.430123 17.430123 21 13 21 C 8.5698774 21 5 17.430123 5 13 C 5 8.5698774 8.5698774 5 13 5 z"></path>
        </symbol>
        <symbol id="lock" viewBox="0 0 30 30">
            <path d="M 15 2 C 11.698375 2 9 4.6983746 9 8 L 9 11.304688 C 7.1627428 12.952391 6 15.337544 6 18 C 6 22.971 10.029 27 15 27 C 19.971 27 24 22.971 24 18 C 24 15.337544 22.837257 12.952391 21 11.304688 L 21 8 C 21 4.8243068 18.483967 2.2673277 15.355469 2.0722656 A 1.0001 1.0001 0 0 0 15 2 z M 15 4 C 17.220375 4 19 5.7796254 19 8 L 19 9.9453125 C 17.794081 9.3453537 16.438486 9 15 9 C 13.561514 9 12.205919 9.3453537 11 9.9453125 L 11 8 C 11 5.7796254 12.779625 4 15 4 z M 15 16 C 16.105 16 17 16.895 17 18 C 17 18.738 16.595 19.375656 16 19.722656 L 16 21 C 16 21.552 15.552 22 15 22 C 14.448 22 14 21.552 14 21 L 14 19.722656 C 13.405 19.376656 13 18.739 13 18 C 13 16.895 13.895 16 15 16 z"></path>
        </symbol>
        <symbol id="unlock" viewBox="0 0 30 30">
            <path d="M 15 2 A 1.0001 1.0001 0 0 0 14.640625 2.0722656 C 11.513966 2.2692722 9 4.8256358 9 8 L 9 11.304688 C 7.1627428 12.952391 6 15.337544 6 18 C 6 22.971 10.029 27 15 27 C 19.971 27 24 22.971 24 18 C 24 13.029 19.971 9 15 9 C 13.561514 9 12.205919 9.3453537 11 9.9453125 L 11 8 C 11 5.7796254 12.779625 4 15 4 C 16.70025 4 18.138894 5.0518378 18.722656 6.5332031 A 1.000123 1.000123 0 1 0 20.583984 5.8007812 C 19.738116 3.6542896 17.676043 2.1514102 15.267578 2.0410156 A 1.0001 1.0001 0 0 0 15 2 z M 15 16 C 16.105 16 17 16.895 17 18 C 17 18.738 16.595 19.375656 16 19.722656 L 16 21 C 16 21.552 15.552 22 15 22 C 14.448 22 14 21.552 14 21 L 14 19.722656 C 13.405 19.376656 13 18.739 13 18 C 13 16.895 13.895 16 15 16 z"></path>
        </symbol>
        <symbol id="info" viewBox="0 0 30 30">
            <path d="M15,3C8.373,3,3,8.373,3,15c0,6.627,5.373,12,12,12s12-5.373,12-12C27,8.373,21.627,3,15,3z M16,21h-2v-7h2V21z M15,11.5 c-0.828,0-1.5-0.672-1.5-1.5s0.672-1.5,1.5-1.5s1.5,0.672,1.5,1.5S15.828,11.5,15,11.5z"></path>
        </symbol>
        <symbol id="about" viewBox="0 0 30 30">
            <path d="M 15 3 C 7.82 3 2 7.925 2 14 C 2 16.676142 3.1322222 19.126093 5.0097656 21.033203 C 5.0476793 21.127522 6.0110131 23.606674 3.1582031 26.134766 A 0.5 0.5 0 0 0 3 26.5 A 0.5 0.5 0 0 0 3.5 27 A 0.5 0.5 0 0 0 3.6074219 26.988281 C 6.4832831 26.817905 8.9434573 25.390739 10.445312 24.291016 C 11.864706 24.741137 13.394827 25 15 25 C 22.18 25 28 20.075 28 14 C 28 7.925 22.18 3 15 3 z M 15 7.5 C 15.828 7.5 16.5 8.172 16.5 9 C 16.5 9.828 15.828 10.5 15 10.5 C 14.172 10.5 13.5 9.828 13.5 9 C 13.5 8.172 14.172 7.5 15 7.5 z M 14 13 L 16 13 L 16 20 L 14 20 L 14 13 z"></path>
        </symbol>
        <symbol id="external-link" viewBox="0 0 30 30">
            <path d="M 25.980469 2.9902344 A 1.0001 1.0001 0 0 0 25.869141 3 L 20 3 A 1.0001 1.0001 0 1 0 20 5 L 23.585938 5 L 13.292969 15.292969 A 1.0001 1.0001 0 1 0 14.707031 16.707031 L 25 6.4140625 L 25 10 A 1.0001 1.0001 0 1 0 27 10 L 27 4.1269531 A 1.0001 1.0001 0 0 0 25.980469 2.9902344 z M 6 7 C 4.9069372 7 4 7.9069372 4 9 L 4 24 C 4 25.093063 4.9069372 26 6 26 L 21 26 C 22.093063 26 23 25.093063 23 24 L 23 14 L 23 11.421875 L 21 13.421875 L 21 16 L 21 24 L 6 24 L 6 9 L 14 9 L 16 9 L 16.578125 9 L 18.578125 7 L 16 7 L 14 7 L 6 7 z"></path>
        </symbol>
        <symbol id="burger" viewBox="0 0 30 30">
            <path d="M 3 7 A 1.0001 1.0001 0 1 0 3 9 L 27 9 A 1.0001 1.0001 0 1 0 27 7 L 3 7 z M 3 14 A 1.0001 1.0001 0 1 0 3 16 L 27 16 A 1.0001 1.0001 0 1 0 27 14 L 3 14 z M 3 21 A 1.0001 1.0001 0 1 0 3 23 L 27 23 A 1.0001 1.0001 0 1 0 27 21 L 3 21 z"></path>
        </symbol>
        <symbol id="binoculars" viewBox="0 0 30 30">
            <path d="M 7 3 C 6.448 3 6 3.448 6 4 C 6 4.552 6.448 5 7 5 L 11 5 C 11.552 5 12 4.552 12 4 C 12 3.448 11.552 3 11 3 L 7 3 z M 19 3 C 18.448 3 18 3.448 18 4 C 18 4.552 18.448 5 19 5 L 23 5 C 23.552 5 24 4.552 24 4 C 24 3.448 23.552 3 23 3 L 19 3 z M 6 7 C 5.448 7 5 7.448 5 8 L 5 11 C 3.895 11 3 11.895 3 13 L 3 22 L 13 22 L 13 15 L 17 15 L 17 22 L 27 22 L 27 13 C 27 11.895 26.105 11 25 11 L 25 8 C 25 7.448 24.552 7 24 7 L 18 7 C 17.448 7 17 7.448 17 8 L 17 11 L 13 11 L 13 8 C 13 7.448 12.552 7 12 7 L 6 7 z M 3 24 C 2.448 24 2 24.448 2 25 C 2 25.552 2.448 26 3 26 L 13 26 C 13.552 26 14 25.552 14 25 C 14 24.448 13.552 24 13 24 L 3 24 z M 17 24 C 16.448 24 16 24.448 16 25 C 16 25.552 16.448 26 17 26 L 27 26 C 27.552 26 28 25.552 28 25 C 28 24.448 27.552 24 27 24 L 17 24 z"></path>
        </symbol>
        <symbol id="unavailable" viewBox="0 0 30 30">
            <path d="M 15 3 C 11.783059 3 8.8641982 4.2807926 6.7070312 6.3496094 A 1.0001 1.0001 0 0 0 6.3476562 6.7070312 C 4.2793766 8.8641071 3 11.783531 3 15 C 3 21.615572 8.3844276 27 15 27 C 18.210007 27 21.123475 25.724995 23.279297 23.664062 A 1.0001 1.0001 0 0 0 23.662109 23.28125 C 25.724168 21.125235 27 18.210998 27 15 C 27 8.3844276 21.615572 3 15 3 z M 15 5 C 20.534692 5 25 9.4653079 25 15 C 25 17.40637 24.155173 19.609062 22.746094 21.332031 L 8.6679688 7.2539062 C 10.390938 5.8448274 12.59363 5 15 5 z M 7.2539062 8.6679688 L 21.332031 22.746094 C 19.609062 24.155173 17.40637 25 15 25 C 9.4653079 25 5 20.534692 5 15 C 5 12.59363 5.8448274 10.390938 7.2539062 8.6679688 z"></path>
        </symbol>
        <symbol id="broadcasting" viewBox="0 0 30 30">
            <path d="M 26.072266 4 A 2 2 0 0 0 24.34375 5 L 15 5 C 13.35503 5 12 6.3550302 12 8 L 12 11.832031 A 1.0001 1.0001 0 0 0 12 12.158203 L 12 14 L 7.8242188 14 A 3 3 0 0 0 5 12 A 3 3 0 0 0 2 15 A 3 3 0 0 0 5 18 A 3 3 0 0 0 7.8261719 16 L 12 16 L 12 17.832031 A 1.0001 1.0001 0 0 0 12 18.158203 L 12 22 C 12 23.64497 13.35503 25 15 25 L 24.197266 25 A 2 2 0 0 0 25.927734 26 A 2 2 0 0 0 27.927734 24 A 2 2 0 0 0 25.927734 22 A 2 2 0 0 0 24.199219 23 L 15 23 C 14.43497 23 14 22.56503 14 22 L 14 19 L 24.246094 19 A 2 2 0 0 0 25.976562 20 A 2 2 0 0 0 27.976562 18 A 2 2 0 0 0 25.976562 16 A 2 2 0 0 0 24.248047 17 L 14 17 L 14 15.167969 A 1.0001 1.0001 0 0 0 14 14.841797 L 14 13 L 24.292969 13 A 2 2 0 0 0 26.023438 14 A 2 2 0 0 0 28.023438 12 A 2 2 0 0 0 26.023438 10 A 2 2 0 0 0 24.294922 11 L 14 11 L 14 8 C 14 7.4349698 14.43497 7 15 7 L 24.341797 7 A 2 2 0 0 0 26.072266 8 A 2 2 0 0 0 28.072266 6 A 2 2 0 0 0 26.072266 4 z"></path>
        </symbol>
        <symbol id="filter" viewBox="0 0 30 30">
            <path d="M 4 4 A 1.0001 1.0001 0 1 0 4 6 L 4.8007812 6 L 12 15 L 18 15 L 25.199219 6 L 26 6 A 1.0001 1.0001 0 1 0 26 4 L 4 4 z M 12 17 L 12 26 L 18 24 L 18 17 L 12 17 z"></path>
        </symbol>
        <symbol id="expand" viewBox="0 0 30 30">
            <path d="M 17 2 A 3 3 0 0 0 14 5 A 3 3 0 0 0 15.292969 7.4609375 L 14.054688 12.001953 A 4 4 0 0 0 14 12 A 4 4 0 0 0 11.560547 12.837891 L 7.84375 9.9453125 A 3 3 0 0 0 8 9 A 3 3 0 0 0 5 6 A 3 3 0 0 0 2 9 A 3 3 0 0 0 5 12 A 3 3 0 0 0 6.6171875 11.523438 L 10.332031 14.414062 A 4 4 0 0 0 10 16 A 4 4 0 0 0 10.681641 18.228516 L 7.1308594 22.222656 A 3 3 0 0 0 6 22 A 3 3 0 0 0 3 25 A 3 3 0 0 0 6 28 A 3 3 0 0 0 9 25 A 3 3 0 0 0 8.625 23.552734 L 12.175781 19.558594 A 4 4 0 0 0 14 20 A 4 4 0 0 0 15.822266 19.556641 L 19.375 23.552734 A 3 3 0 0 0 19 25 A 3 3 0 0 0 22 28 A 3 3 0 0 0 25 25 A 3 3 0 0 0 22 22 A 3 3 0 0 0 20.869141 22.222656 L 17.318359 18.226562 A 4 4 0 0 0 18 16 A 4 4 0 0 0 17.998047 15.947266 L 22.535156 14.708984 A 3 3 0 0 0 25 16 A 3 3 0 0 0 28 13 A 3 3 0 0 0 25 10 A 3 3 0 0 0 22.007812 12.779297 L 17.46875 14.017578 A 4 4 0 0 0 15.982422 12.53125 L 17.222656 7.9882812 A 3 3 0 0 0 20 5 A 3 3 0 0 0 17 2 z"></path>
        </symbol>
        <symbol id="pause" viewBox="0 0 30 30">
            <path d="M 8 4 C 6.895 4 6 4.895 6 6 L 6 24 C 6 25.105 6.895 26 8 26 L 10 26 C 11.105 26 12 25.105 12 24 L 12 6 C 12 4.895 11.105 4 10 4 L 8 4 z M 20 4 C 18.895 4 18 4.895 18 6 L 18 24 C 18 25.105 18.895 26 20 26 L 22 26 C 23.105 26 24 25.105 24 24 L 24 6 C 24 4.895 23.105 4 22 4 L 20 4 z"></path>
        </symbol>
        <symbol id="resume" viewBox="0 0 30 30">
            <path d="M 8 5.5 C 7.172 5.5 6.5 6.172 6.5 7 L 6.5 22 C 6.5 22.828 7.172 23.5 8 23.5 C 8.828 23.5 9.5 22.828 9.5 22 L 9.5 7 C 9.5 6.172 8.828 5.5 8 5.5 z M 13.5 5.5 A 1 1 0 0 0 12.5 6.5 A 1 1 0 0 0 12.5 6.5039062 L 12.5 14.5 L 12.5 22.496094 A 1 1 0 0 0 12.5 22.5 A 1 1 0 0 0 13.5 23.5 A 1 1 0 0 0 14.091797 23.304688 L 14.09375 23.304688 A 1 1 0 0 0 14.121094 23.283203 L 25.041016 15.341797 A 1 1 0 0 0 25.5 14.5 A 1 1 0 0 0 25.056641 13.669922 L 14.09375 5.6953125 A 1 1 0 0 0 13.5 5.5 z"></path>
        </symbol>
        <symbol id="save" viewBox="0 0 30 30">
            <path d="M 6 4 C 4.895 4 4 4.895 4 6 L 4 24 C 4 25.105 4.895 26 6 26 L 24 26 C 25.105 26 26 25.105 26 24 L 26 8 L 22 4 L 20 4 L 20 10 C 20 10.552 19.552 11 19 11 L 10 11 C 9.448 11 9 10.552 9 10 L 9 4 L 6 4 z M 16 4 L 16 9 L 18 9 L 18 4 L 16 4 z M 10 16 L 20 16 C 21.105 16 22 16.895 22 18 L 22 24 L 8 24 L 8 18 C 8 16.895 8.895 16 10 16 z"></path>
        </symbol>
        <symbol id="error" viewBox="0 0 30 30">
            <path d="M 15 3 C 14.168432 3 13.456063 3.5067238 13.154297 4.2285156 L 2.3007812 22.947266 L 2.3007812 22.949219 A 2 2 0 0 0 2 24 A 2 2 0 0 0 4 26 A 2 2 0 0 0 4.140625 25.994141 L 4.1445312 26 L 15 26 L 25.855469 26 L 25.859375 25.992188 A 2 2 0 0 0 26 26 A 2 2 0 0 0 28 24 A 2 2 0 0 0 27.699219 22.947266 L 27.683594 22.919922 A 2 2 0 0 0 27.681641 22.917969 L 16.845703 4.2285156 C 16.543937 3.5067238 15.831568 3 15 3 z M 13.787109 11.359375 L 16.212891 11.359375 L 16.011719 17.832031 L 13.988281 17.832031 L 13.787109 11.359375 z M 15.003906 19.810547 C 15.825906 19.810547 16.318359 20.252813 16.318359 21.007812 C 16.318359 21.748812 15.825906 22.189453 15.003906 22.189453 C 14.175906 22.189453 13.679688 21.748813 13.679688 21.007812 C 13.679688 20.252813 14.174906 19.810547 15.003906 19.810547 z"></path>
        </symbol>
        <symbol id="download" viewBox="0 0 30 30">
            <path d="M 15 1 C 14.448 1 14 1.448 14 2 L 14 6 L 16 6 L 16 2 C 16 1.448 15.552 1 15 1 z M 16 6 L 16 18.585938 L 18.292969 16.292969 C 18.683969 15.901969 19.316031 15.901969 19.707031 16.292969 C 20.098031 16.683969 20.098031 17.316031 19.707031 17.707031 L 15.707031 21.707031 C 15.512031 21.902031 15.256 22 15 22 C 14.744 22 14.487969 21.902031 14.292969 21.707031 L 10.292969 17.707031 C 9.9019687 17.316031 9.9019688 16.683969 10.292969 16.292969 C 10.683969 15.901969 11.316031 15.901969 11.707031 16.292969 L 14 18.585938 L 14 6 L 6 6 C 4.895 6 4 6.895 4 8 L 4 25 C 4 26.105 4.895 27 6 27 L 24 27 C 25.105 27 26 26.105 26 25 L 26 8 C 26 6.895 25.105 6 24 6 L 16 6 z"></path>
        </symbol>
        <symbol id="bug" viewBox="0 0 30 30">
            <path d="M 10.03125 2.9042969 A 1.0001 1.0001 0 0 0 9.0605469 4.2578125 C 9.0605469 4.2578125 9.7494688 5.9996671 11.488281 7.0800781 C 11.080693 7.2039808 10.414387 7.5446908 9.8027344 8.4570312 C 9.4322834 8.3403526 9.1037156 8.2185154 8.8496094 8.0976562 C 8.3997876 7.8837103 8.118603 7.6807271 7.9589844 7.546875 C 7.7993657 7.4130229 7.8046875 7.40625 7.8046875 7.40625 A 1.0001 1.0001 0 0 0 7 7 L 5 7 A 1.0001 1.0001 0 1 0 5 9 L 6.5957031 9 C 6.6368531 9.038228 6.6271651 9.038995 6.6738281 9.078125 C 6.961397 9.3192729 7.3888062 9.6162897 7.9902344 9.9023438 C 9.1930908 10.474451 11.083447 11 13.935547 11 A 1.0001 1.0001 0 0 0 14.140625 10.980469 C 14.430223 10.987386 14.697172 11 15.017578 11 C 15.326932 11 15.582943 10.988887 15.863281 10.982422 A 1.0001 1.0001 0 0 0 16.064453 11 C 18.916553 11 20.806909 10.474451 22.009766 9.9023438 C 22.611194 9.6162897 23.038603 9.3192729 23.326172 9.078125 C 23.372834 9.0389949 23.363147 9.0382279 23.404297 9 L 25 9 A 1.0001 1.0001 0 1 0 25 7 L 23 7 A 1.0001 1.0001 0 0 0 22.195312 7.40625 C 22.195312 7.40625 22.200612 7.41302 22.041016 7.546875 C 21.881397 7.6807271 21.600212 7.8837103 21.150391 8.0976562 C 20.891444 8.2208175 20.55751 8.3444389 20.177734 8.4628906 C 19.558423 7.539139 18.907199 7.1978378 18.517578 7.0761719 C 20.252095 5.9954925 20.939453 4.2578125 20.939453 4.2578125 A 1.0001 1.0001 0 0 0 20.039062 2.9042969 A 1.0001 1.0001 0 0 0 19.060547 3.5761719 C 19.060547 3.5761719 18.556779 5.088719 16.882812 5.6757812 C 16.36708 5.2573881 15.71568 5 15 5 C 14.284868 5 13.632808 5.2576596 13.117188 5.6757812 C 11.443221 5.088719 10.939453 3.5761719 10.939453 3.5761719 A 1.0001 1.0001 0 0 0 10.03125 2.9042969 z M 5.9628906 11 A 1.0001 1.0001 0 0 0 5.6835938 11.050781 L 2.6835938 12.050781 A 1.0005646 1.0005646 0 0 0 3.3164062 13.949219 L 5.9707031 13.064453 C 6.0672386 13.111686 6.3494962 13.235909 6.5917969 13.34375 C 6.2888038 14.107541 6 15.15686 6 16.425781 C 6 17.948961 6.3086267 19.289595 6.7949219 20.453125 L 6.1601562 22.357422 L 3.4453125 24.167969 A 1.0001 1.0001 0 1 0 4.5546875 25.832031 L 7.5546875 23.832031 A 1.0001 1.0001 0 0 0 7.9492188 23.316406 L 8.1367188 22.751953 C 9.8000084 24.902319 11.988204 26 13 26 C 13.742 26 14 25.42 14 25 L 14 16 C 14 15.447 14.448 15 15 15 C 15.552 15 16 15.447 16 16 L 16 25 C 16 25.42 16.258 26 17 26 C 18.011796 26 20.199992 24.902319 21.863281 22.751953 L 22.050781 23.316406 A 1.0001 1.0001 0 0 0 22.445312 23.832031 L 25.445312 25.832031 A 1.0001 1.0001 0 1 0 26.554688 24.167969 L 23.839844 22.357422 L 23.205078 20.453125 C 23.691373 19.289595 24 17.948961 24 16.425781 C 24 15.15686 23.711196 14.107541 23.408203 13.34375 C 23.650504 13.235909 23.932762 13.111686 24.029297 13.064453 L 26.683594 13.949219 A 1.0005646 1.0005646 0 1 0 27.316406 12.050781 L 24.316406 11.050781 A 1.0001 1.0001 0 0 0 24.021484 11 A 1.0001 1.0001 0 0 0 23.552734 11.105469 C 23.552734 11.105469 20.660591 12.508607 17.513672 12.896484 C 16.740098 12.956149 15.915495 13 15 13 C 14.084505 13 13.259902 12.956149 12.486328 12.896484 C 9.3394093 12.508607 6.4472656 11.105469 6.4472656 11.105469 A 1.0001 1.0001 0 0 0 5.9628906 11 z"></path>
        </symbol>
        <symbol id="source-code" viewBox="0 0 30 30">
            <path d="M 16.984375 3.9863281 A 1.0001 1.0001 0 0 0 16.019531 4.8046875 L 12.019531 24.804688 A 1.0001 1.0001 0 1 0 13.980469 25.195312 L 17.980469 5.1953125 A 1.0001 1.0001 0 0 0 16.984375 3.9863281 z M 7.2519531 7.9882812 A 1.0001 1.0001 0 0 0 6.4257812 8.421875 L 2.1835938 14.421875 A 1.0001 1.0001 0 0 0 2.1835938 15.578125 L 6.4257812 21.578125 A 1.0003738 1.0003738 0 0 0 8.0585938 20.421875 L 4.2246094 15 L 8.0585938 9.578125 A 1.0001 1.0001 0 0 0 7.2519531 7.9882812 z M 22.960938 7.9882812 A 1.0001 1.0001 0 0 0 22.183594 9.578125 L 26.017578 15 L 22.183594 20.421875 A 1.0003736 1.0003736 0 1 0 23.816406 21.578125 L 28.058594 15.578125 A 1.0001 1.0001 0 0 0 28.058594 14.421875 L 23.816406 8.421875 A 1.0001 1.0001 0 0 0 22.960938 7.9882812 z"></path>
        </symbol>
        <symbol id="plugin" viewBox="0 0 30 30">
            <path d="M 9 3 C 7.895 3 7 3.895 7 5 L 7 6 L 12 6 L 12 5 C 12 3.895 11.105 3 10 3 L 9 3 z M 20 3 C 18.895 3 18 3.895 18 5 L 18 6 L 23 6 L 23 5 C 23 3.895 22.105 3 21 3 L 20 3 z M 5 8 C 3.895 8 3 8.895 3 10 L 3 23 C 3 24.105 3.895 25 5 25 L 25 25 C 26.105 25 27 24.105 27 23 L 27 10 C 27 8.895 26.105 8 25 8 L 5 8 z"></path>
        </symbol>
        <symbol id="step-out" viewBox="0 0 30 30">
            <path d="M 23 3 L 23 6 L 16 6 C 14.906937 6 14 6.9069372 14 8 L 14 22 A 1.0001 1.0001 0 1 0 16 22 L 16 8 L 23 8 L 23 11 L 28 7 L 23 3 z M 5 24 A 1.0001 1.0001 0 1 0 5 26 L 11 26 A 1.0001 1.0001 0 1 0 11 24 L 5 24 z M 19 24 A 1.0001 1.0001 0 1 0 19 26 L 25 26 A 1.0001 1.0001 0 1 0 25 24 L 19 24 z"></path>
        </symbol>
        <symbol id="step-into" viewBox="0 0 30 30">
            <path d="M 5 4 A 1.0001 1.0001 0 1 0 5 6 L 14 6 L 14 19 L 11 19 L 15 24 L 19 19 L 16 19 L 16 6 C 16 4.9069372 15.093063 4 14 4 L 5 4 z M 5 24 A 1.0001 1.0001 0 1 0 5 26 L 11 26 A 1.0001 1.0001 0 1 0 11 24 L 5 24 z M 19 24 A 1.0001 1.0001 0 1 0 19 26 L 25 26 A 1.0001 1.0001 0 1 0 25 24 L 19 24 z"></path>
        </symbol>
        <symbol id="step-over" viewBox="0 0 30 30">
            <path d="M 6 4 C 4.9069372 4 4 4.9069372 4 6 L 4 25 A 1.0001 1.0001 0 1 0 6 25 L 6 6 L 24 6 L 24 21 L 21 21 L 25 26 L 29 21 L 26 21 L 26 6 C 26 4.9069372 25.093063 4 24 4 L 6 4 z M 12 24 A 1.0001 1.0001 0 1 0 12 26 L 18 26 A 1.0001 1.0001 0 1 0 18 24 L 12 24 z"></path>
        </symbol>
        <symbol id="unpin" viewBox="0 0 30 30">
            <path d="M 1.7070312 0.29296875 L 0.29296875 1.7070312 L 28.292969 29.707031 L 29.707031 28.292969 L 18.519531 17.105469 C 20.381645 15.997904 23.480793 14.090322 25.242188 12.65625 L 25.292969 12.707031 A 1.0001 1.0001 0 1 0 26.707031 11.292969 L 18.707031 3.2929688 A 1.0001 1.0001 0 0 0 17.990234 2.9902344 A 1.0001 1.0001 0 0 0 17.292969 4.7070312 L 17.34375 4.7578125 C 15.909678 6.5192067 14.002096 9.6183546 12.894531 11.480469 L 1.7070312 0.29296875 z M 7.9902344 12.990234 A 1.0001 1.0001 0 0 0 7.2929688 14.707031 L 15.292969 22.707031 A 1.0001 1.0001 0 1 0 16.707031 21.292969 L 8.7070312 13.292969 A 1.0001 1.0001 0 0 0 7.9902344 12.990234 z M 9.2929688 19.292969 L 4.2929688 24.292969 A 1 1 0 0 0 4 25 A 1 1 0 0 0 5 26 A 1 1 0 0 0 5.7070312 25.707031 L 10.707031 20.707031 L 9.2929688 19.292969 z"></path>
        </symbol>
        <symbol id="pin" viewBox="0 0 30 30">
            <path d="M 20 3 A 1 1 0 0 0 19.134766 3.5019531 L 19.132812 3.5019531 L 14.755859 9.8984375 L 20.103516 15.246094 L 26.535156 10.845703 L 26.537109 10.84375 A 1 1 0 0 0 27 10 A 1 1 0 0 0 26.703125 9.2890625 L 20.730469 3.3183594 L 20.726562 3.3144531 A 1 1 0 0 0 20 3 z M 10.109375 11 C 8.622375 11 7.1345 11.566672 6 12.701172 L 10.941406 17.644531 L 4.2929688 24.292969 A 1.0001 1.0001 0 1 0 5.7070312 25.707031 L 12.355469 19.058594 L 17.298828 24 C 19.567828 21.731 19.567828 18.052203 17.298828 15.783203 L 14.216797 12.701172 C 13.082297 11.566672 11.596375 11 10.109375 11 z"></path>
        </symbol>
        <symbol id="play" viewBox="0 0 30 30">
            <path d="M 6 3 A 1 1 0 0 0 5 4 A 1 1 0 0 0 5 4.0039062 L 5 15 L 5 25.996094 A 1 1 0 0 0 5 26 A 1 1 0 0 0 6 27 A 1 1 0 0 0 6.5800781 26.8125 L 6.5820312 26.814453 L 26.416016 15.908203 A 1 1 0 0 0 27 15 A 1 1 0 0 0 26.388672 14.078125 L 6.5820312 3.1855469 L 6.5800781 3.1855469 A 1 1 0 0 0 6 3 z"></path>
        </symbol>
        <symbol id="execute" viewBox="0 0 30 30">
            <path d="M 10.054688 5 C 8.5947511 5 7.336049 6.0667697 7.0957031 7.5058594 L 4.3730469 23.835938 A 1.0001 1.0001 0 0 0 5.359375 25 L 26.359375 25 A 1.0001 1.0001 0 0 0 27.345703 24.164062 L 29.958984 8.4941406 C 30.260311 6.6846962 28.83419 5 27 5 L 10.054688 5 z M 1 11 A 1.0001 1.0001 0 1 0 1 13 L 3.3066406 13 A 1.0001 1.0001 0 1 0 3.3066406 11 L 1 11 z M 8.5410156 11 L 27.513672 11 L 25.513672 23 L 6.5390625 23 L 8.5410156 11 z M 11.898438 14 C 11.421437 14 11.011922 14.336688 10.919922 14.804688 L 10.123047 18.804688 C 10.064047 19.098688 10.141078 19.402766 10.330078 19.634766 C 10.521078 19.865766 10.803516 20 11.103516 20 L 22.103516 20 C 22.581516 20 22.991984 19.663312 23.083984 19.195312 L 23.880859 15.195312 C 23.939859 14.901312 23.862828 14.596234 23.673828 14.365234 C 23.483828 14.133234 23.198438 14 22.898438 14 L 11.898438 14 z M 1 15 A 1.0001 1.0001 0 1 0 1 17 L 2.7011719 17 A 1.0001 1.0001 0 1 0 2.7011719 15 L 1 15 z M 1 19 A 1.0001 1.0001 0 1 0 1 21 L 2.0957031 21 A 1.0001 1.0001 0 1 0 2.0957031 19 L 1 19 z"></path>
        </symbol>
        <symbol id="language" viewBox="0 0 30 30">
            <path d="M 5 5 C 3.895 5 3 5.895 3 7 L 3 22 C 3 23.105 3.895 24 5 24 L 9 24 L 9 28 A 1 1 0 0 0 10 29 A 1 1 0 0 0 10.837891 28.542969 L 14.25 24 L 25 24 C 26.105 24 27 23.105 27 22 L 27 7 C 27 5.895 26.105 5 25 5 L 5 5 z M 9 8 C 9.4 8 9.7629219 8.2374687 9.9199219 8.6054688 L 12.919922 15.605469 C 13.137922 16.112469 12.901531 16.701922 12.394531 16.919922 C 12.266531 16.975922 12.132 17 12 17 C 11.612 17 11.242078 16.773531 11.080078 16.394531 L 10.912109 16 L 7.0878906 16 L 6.9199219 16.394531 C 6.7029219 16.902531 6.1114688 17.139922 5.6054688 16.919922 C 5.0984688 16.701922 4.8620781 16.113422 5.0800781 15.607422 L 8.0800781 8.6074219 C 8.2370781 8.2384219 8.6 8 9 8 z M 21 11.001953 C 21.552 11.001953 22 11.448953 22 12.001953 L 22 13.001953 L 24 13.001953 C 24.552 13.001953 25 13.448953 25 14.001953 C 25 14.554953 24.552 15 24 15 L 23.890625 15 C 23.681625 16.039 23.175734 17.254312 22.427734 18.320312 L 23.599609 19.199219 C 24.041609 19.530219 24.131781 20.158609 23.800781 20.599609 C 23.604781 20.862609 23.302047 20.998047 22.998047 20.998047 C 22.790047 20.998047 22.580391 20.933828 22.400391 20.798828 L 21.076172 19.806641 C 20.208172 20.526641 19.173 21 18 21 C 17.448 21 17 20.553 17 20 C 17 19.447 17.448 19 18 19 C 18.502 19 18.975109 18.830594 19.412109 18.558594 L 18.400391 17.800781 C 17.958391 17.469781 17.868219 16.841391 18.199219 16.400391 C 18.531219 15.958391 19.157609 15.871172 19.599609 16.201172 L 20.845703 17.134766 C 21.314703 16.454766 21.660703 15.687953 21.845703 15.001953 L 18 15.001953 C 17.448 15.001953 17 14.554953 17 14.001953 C 17 13.448953 17.448 13.001953 18 13.001953 L 20 13.001953 L 20 12.001953 C 20 11.448953 20.448 11.001953 21 11.001953 z M 9 11.539062 L 7.9453125 14 L 10.054688 14 L 9 11.539062 z"></path>
        </symbol>
        <symbol id="flame" viewBox="0 0 30 30">
            <path d="M 13 2 A 1 1 0 0 0 12 3 C 12 8.057 5 12 5 19 C 5 24.317836 10.763496 27.75594 12.792969 27.978516 A 1 1 0 0 0 13 28 A 1 1 0 0 0 14 27 A 1 1 0 0 0 13.630859 26.224609 A 1 1 0 0 0 13.630859 26.222656 C 12.720859 25.484656 11 23.343672 11 21.388672 C 11 18.179672 14 17 14 17 C 12.289 21.84 17.895437 22.424797 19.023438 27.216797 L 19.025391 27.216797 A 1 1 0 0 0 20 28 A 1 1 0 0 0 20.585938 27.808594 A 1 1 0 0 0 20.638672 27.767578 C 20.801418 27.661885 25 24.885024 25 19 C 25 16.597384 23.798332 12.470502 22.933594 10.642578 C 22.93288 10.641068 22.932354 10.638225 22.931641 10.636719 A 1 1 0 0 0 22.929688 10.632812 A 1 1 0 0 0 22 10 A 1 1 0 0 0 21.017578 10.818359 A 1 1 0 0 0 21.017578 10.822266 C 21.015135 10.833195 20.555826 12.873023 19 14 C 19 9.2883665 15.598363 4.4216134 13.804688 2.4082031 A 1 1 0 0 0 13.716797 2.3046875 A 1 1 0 0 0 13 2 z"></path>
        </symbol>
        <symbol id="reset" viewBox="0 0 30 30">
            <path d="M 15 3 C 8.9134751 3 3.87999 7.5533546 3.1132812 13.439453 A 1.0001 1.0001 0 1 0 5.0957031 13.697266 C 5.7349943 8.7893639 9.9085249 5 15 5 C 17.766872 5 20.250574 6.1285473 22.058594 7.9414062 L 20 10 L 26 11 L 25 5 L 23.470703 6.5292969 C 21.300701 4.3575454 18.309289 3 15 3 z M 25.912109 15.417969 A 1.0001 1.0001 0 0 0 24.904297 16.302734 C 24.265006 21.210636 20.091475 25 15 25 C 11.977904 25 9.2987537 23.65024 7.4648438 21.535156 L 9 20 L 3 19 L 4 25 L 6.0488281 22.951172 C 8.2452659 25.422716 11.436061 27 15 27 C 21.086525 27 26.12001 22.446646 26.886719 16.560547 A 1.0001 1.0001 0 0 0 25.912109 15.417969 z"></path>
        </symbol>
    </defs>
    <g transform="matrix(.19348 0 0 .19348 1.293 1.0097)"><circle cx="256.25" cy="255.99" r="253.09" fill="#fff"/><path transform="translate(-.80784 .80784)" d="m190.5 10.523a253.66 253.66 0 0 0-187.27 244.41 253.66 253.66 0 0 0 253.66 253.66 253.66 253.66 0 0 0 240.26-174.18c-357.86 246.85-524.73 106.22-306.66-323.89z" fill="#9f1d20"/><path transform="translate(-.80784 .80784)" d="m257.06 2.084c-95.401 164.98-128.55 272.57-100.25 330.49l157.69-159.95-26.656-24.404 114.34-25.582-16.09 116.88-26.506-24.266-160.67 162.99c55.131 34.933 160.64-7.8996 311.24-123.07 0-139.78-113.31-253.09-253.09-253.09z" fill="#3e5ba9"/></g>
</svg>